# xmcd
#
# Track frame offsets:
#	150
#	26402
#	43741
#	66842
#	90144
#	113233
#	137308
#	159213
#	185289
#
# Disc length: 2735 seconds
#
# Revision: 1
# Processed by: cddbd v1.4PL0 Copyright (c) Steve Scherf et al.
# Submitted via: audiograbber 1.80
#
DISCID=610aad09
DTITLE=Коллекция СВ - Я Знаю (1991)
DYEAR=1900
DGENRE=
TTITLE0=Я знаю
TTITLE1=Началось уже
TTITLE2=Бег
TTITLE3=Звон
TTITLE4=Русская
TTITLE5=Пили и курили
TTITLE6=Чёлочки косички
TTITLE7=Уйти из дома
TTITLE8=Интернационал
EXTD=
EXTT0=
EXTT1=
EXTT2=
EXTT3=
EXTT4=
EXTT5=
EXTT6=
EXTT7=
EXTT8=
PLAYORDER=
